<svg xmlns="http://www.w3.org/2000/svg" version="1.2" baseProfile="tiny-ps" viewBox="0 0 256 256">
  <title>LunSoul EVENTS</title>
  <desc>LunSoul EVENTS logo for BIMI</desc>
  <path fill="#7C4BC9" fill-rule="evenodd" d="M157.5 82.2L156.5 81.8L156.2 81.0L157.8 78.5L157.8 73.5L157.2 72.5L158.0 71.8L158.5 71.8L159.8 73.0L159.8 74.0L160.2 74.5L160.2 78.0L157.5 82.2ZM135.5 111.8L135.0 111.8L134.2 111.0L134.2 110.0L134.8 109.5L134.8 108.5L135.8 106.5L135.8 105.0L136.2 104.5L136.8 102.0L137.2 101.5L137.2 100.0L138.2 98.0L138.2 96.5L138.8 96.0L138.8 95.0L139.2 94.5L139.2 93.5L140.2 91.5L140.8 88.0L141.8 86.0L142.2 82.5L143.2 80.5L143.2 79.0L143.8 78.0L145.0 76.8L145.5 76.8L146.5 77.8L148.0 78.2L153.8 83.5L153.8 84.0L156.2 86.5L156.2 87.0L157.8 88.5L157.8 89.0L159.2 90.5L159.2 91.0L160.8 92.5L160.8 93.0L162.2 94.5L162.2 95.0L169.2 101.5L167.5 103.2L164.0 103.8L162.0 104.8L160.5 104.8L160.0 105.2L158.5 105.2L158.0 105.8L156.5 105.8L156.0 106.2L154.5 106.2L152.5 107.2L149.0 107.8L147.0 108.8L145.5 108.8L143.5 109.8L142.0 109.8L141.5 110.2L140.0 110.2L139.5 110.8L136.0 111.2L135.5 111.8ZM90.0 109.2L88.5 109.2L87.5 108.8L86.0 107.2L85.5 107.2L81.5 104.2L81.0 104.2L80.0 103.2L79.5 103.2L78.0 104.8L74.5 106.8L71.5 109.2L70.0 109.2L68.2 107.5L68.2 106.5L68.8 106.0L68.8 105.0L69.2 104.5L69.2 103.5L69.8 103.0L69.8 102.0L70.2 101.5L70.2 100.5L71.2 98.5L71.2 97.0L69.0 95.2L68.5 95.2L67.0 93.8L66.5 93.8L65.0 92.2L64.5 92.2L63.2 90.5L63.2 89.0L64.5 87.8L73.0 87.8L74.0 88.2L75.2 86.5L75.2 85.5L75.8 85.0L76.8 81.0L77.2 80.5L77.2 79.5L79.0 77.2L81.0 77.2L82.2 78.5L82.2 79.5L83.2 81.5L83.2 82.5L83.8 83.0L84.8 87.0L85.5 87.8L95.0 87.8L96.2 89.0L96.2 90.5L94.0 92.8L92.0 93.8L88.2 97.0L88.8 99.0L89.2 99.5L89.2 100.5L89.8 101.0L89.8 102.0L90.8 103.5L91.2 106.0L91.8 106.5L91.2 108.0L90.0 109.2ZM168.5 82.8L166.2 81.0L166.2 79.0L167.5 77.8L168.5 77.8L169.0 77.2L170.8 78.5L171.2 80.5L170.0 82.2L169.0 82.2L168.5 82.8ZM154.8 103.0L156.0 102.8L157.2 101.5L157.2 99.5L154.2 93.5L153.2 92.5L152.2 90.0L151.2 89.0L150.2 87.0L148.8 85.5L148.8 85.0L147.0 83.2L146.2 84.0L146.2 85.0L146.8 85.5L147.2 89.0L148.2 91.0L148.2 92.5L149.2 94.0L149.2 95.5L150.2 97.0L150.2 98.5L150.8 99.0L151.2 101.5L152.5 103.2L154.8 103.0ZM167.0 92.8L166.2 92.0L166.2 90.5L169.0 88.2L170.0 88.2L170.5 87.8L171.0 88.2L172.5 88.2L173.5 87.8L175.8 89.5L175.0 90.2L171.0 90.2L170.5 90.8L169.5 90.8L167.0 92.8ZM119.0 97.8L116.5 97.8L114.2 95.0L114.8 94.5L114.8 93.5L117.5 91.2L119.5 91.8L121.2 94.0L120.8 96.0L119.0 97.8ZM143.2 106.0L144.5 105.8L145.8 104.5L145.8 104.0L144.8 102.0L144.8 100.5L144.2 100.0L143.8 97.5L143.2 97.0L143.2 95.5L142.5 94.8L141.8 95.5L141.8 98.5L141.2 99.0L141.2 102.5L140.8 103.0L140.8 104.5L142.0 106.2L142.5 105.8L143.0 106.2L143.2 106.0ZM123.0 157.2L119.5 157.2L119.0 156.8L116.5 156.8L116.0 156.2L114.5 156.2L114.0 155.8L113.0 155.8L110.0 154.2L107.8 152.5L109.8 148.5L111.0 147.2L114.5 149.2L115.5 149.2L117.5 150.2L122.5 150.8L123.0 150.2L124.5 150.2L125.5 149.8L127.8 147.0L127.8 145.0L125.5 142.2L122.5 140.8L118.5 139.8L116.0 138.2L114.0 137.8L110.2 134.5L109.2 132.5L109.2 131.5L108.8 131.0L108.8 127.0L109.2 126.5L109.2 125.5L110.2 123.5L113.5 120.2L116.5 118.8L117.5 118.8L118.0 118.2L121.0 118.2L121.5 117.8L126.5 118.2L127.0 118.8L129.5 119.2L131.0 120.2L132.0 120.2L133.2 121.5L133.2 122.5L132.2 124.0L131.8 126.0L130.5 127.2L125.5 124.8L119.5 124.8L116.8 127.0L116.8 130.0L119.5 132.2L120.5 132.2L122.0 133.2L124.5 133.8L125.0 134.2L126.0 134.2L131.0 136.8L133.8 139.5L134.8 141.5L134.8 143.0L135.2 143.5L135.2 147.0L134.8 147.5L134.2 150.0L132.2 152.5L132.2 153.0L131.0 154.2L127.5 156.2L126.5 156.2L126.0 156.8L123.5 156.8L123.0 157.2ZM44.5 156.2L24.0 156.2L23.2 155.5L23.2 119.0L24.0 118.2L29.5 118.2L30.2 119.0L30.2 149.0L31.0 149.8L44.0 149.8L44.8 150.5L44.8 154.0L45.2 154.5L45.2 155.5L44.5 156.2ZM209.5 156.2L204.5 156.2L203.8 155.5L203.8 119.0L204.5 118.2L209.5 118.2L210.2 119.0L210.2 155.5L209.5 156.2ZM59.5 157.2L56.0 157.2L55.5 156.8L54.0 156.8L53.5 156.2L51.5 155.8L49.2 153.5L48.2 151.5L48.2 150.5L47.8 150.0L47.8 129.5L48.5 128.8L54.5 128.8L55.2 129.5L55.2 133.5L54.8 134.0L55.2 134.5L55.2 147.5L57.0 149.8L58.0 150.2L59.5 150.2L60.0 150.8L60.5 150.2L62.5 150.2L63.5 149.8L65.2 148.0L66.2 146.0L66.2 129.5L67.0 128.8L72.5 128.8L73.2 129.5L73.2 155.5L72.5 156.2L67.5 156.2L66.8 155.5L66.8 155.0L66.0 154.2L65.5 154.2L63.0 156.2L62.0 156.8L60.0 156.8L59.5 157.2ZM104.0 156.2L98.0 156.2L97.2 155.5L97.2 142.0L97.8 141.0L97.2 140.5L97.2 139.0L96.8 138.0L95.0 136.2L94.0 136.2L93.5 135.8L91.0 135.8L90.5 136.2L89.5 136.2L88.5 136.8L86.8 139.0L86.8 146.0L86.2 146.5L86.8 147.5L86.8 148.5L86.2 149.0L86.8 149.5L86.2 150.5L86.8 151.5L86.8 155.5L86.0 156.2L79.5 156.2L78.8 155.5L78.8 129.5L79.5 128.8L85.5 128.8L86.2 129.5L86.2 131.0L87.0 131.8L90.5 129.2L92.0 129.2L92.5 128.8L97.5 128.8L98.0 129.2L99.0 129.2L101.0 130.2L102.8 132.0L104.2 135.0L104.2 136.5L104.8 137.0L104.8 155.5L104.0 156.2ZM155.0 157.2L151.0 157.2L150.5 156.8L148.5 156.8L148.0 156.2L145.5 155.8L141.2 152.5L138.2 146.5L138.2 140.0L138.8 139.5L139.2 137.0L140.8 135.0L140.8 134.5L145.0 130.8L147.0 129.8L148.0 129.8L148.5 129.2L150.0 129.2L150.5 128.8L156.0 128.8L156.5 129.2L158.0 129.2L158.5 129.8L159.5 129.8L161.5 130.8L166.2 135.5L166.2 136.5L167.2 137.5L167.2 138.5L167.8 139.0L167.8 141.5L168.2 142.0L168.2 143.5L167.8 144.0L167.8 146.5L167.2 147.0L167.2 148.0L165.8 151.0L162.0 154.8L159.0 156.2L158.0 156.2L157.5 156.8L155.5 156.8L155.0 157.2ZM184.5 157.2L180.0 157.2L178.0 156.2L177.0 156.2L174.8 154.5L172.8 151.0L172.8 149.5L172.2 149.0L172.2 129.5L173.0 128.8L178.5 128.8L179.2 129.5L179.2 145.5L179.8 146.0L179.8 148.0L182.5 150.2L187.0 150.2L188.0 149.8L190.2 147.5L190.2 146.5L190.8 146.0L190.8 129.5L191.5 128.8L197.0 128.8L197.8 129.5L197.8 155.5L197.0 156.2L192.0 156.2L191.2 155.5L191.2 154.5L190.5 153.8L188.5 155.8L186.5 156.8L185.0 156.8L184.5 157.2ZM154.2 150.5L157.0 149.8L159.8 147.0L159.8 146.0L160.2 145.5L160.2 143.0L160.8 142.5L160.2 142.0L160.2 140.0L157.5 136.8L155.5 135.8L150.5 135.8L148.5 136.8L146.8 138.5L145.8 140.5L145.8 145.5L146.2 146.0L146.2 147.0L149.0 149.8L150.0 150.2L151.5 150.2L152.0 150.8L154.2 150.5Z"/>
  <path fill="#4A3D6C" fill-rule="evenodd" d="M45.0 156.8L22.8 156.5L23.0 117.8L30.8 118.0L30.8 148.5L31.5 149.2L45.2 149.5L45.0 154.2L44.8 150.5L44.0 149.8L31.0 149.8L30.2 149.0L30.2 119.0L29.5 118.2L24.0 118.2L23.2 119.0L23.2 155.5L24.0 156.2L45.0 156.2L45.0 156.8ZM210.5 156.8L203.2 156.5L203.5 117.8L210.8 118.0L210.5 156.8ZM209.8 156.0L210.2 155.5L210.2 119.0L209.5 118.2L204.5 118.2L203.8 119.0L203.8 155.5L204.5 156.2L209.8 156.0ZM47.5 150.2L47.2 128.5L55.0 128.2L55.0 129.2L54.5 128.8L48.5 128.8L47.8 129.5L47.5 150.2ZM73.5 156.8L66.5 156.8L66.2 155.5L65.2 154.5L66.0 153.8L66.8 155.5L67.5 156.2L72.5 156.2L73.2 155.5L73.2 129.5L72.5 128.8L67.0 128.8L66.2 129.5L66.0 146.2L66.0 128.2L73.8 128.5L73.5 156.8ZM172.0 148.2L171.8 129.0L172.5 128.2L179.5 128.2L179.5 145.8L179.2 129.5L178.5 128.8L173.0 128.8L172.2 129.5L172.0 148.2ZM198.0 156.8L191.0 156.8L190.8 155.5L189.8 154.5L190.5 153.8L191.0 153.8L191.2 155.5L192.0 156.2L197.0 156.2L197.8 155.5L197.8 129.5L197.0 128.8L191.5 128.8L190.8 129.5L190.5 146.2L190.5 128.2L198.2 128.5L198.0 156.8ZM95.0 136.8L94.2 136.5L95.0 136.2L95.0 136.8ZM95.5 137.2L95.5 136.8L95.5 137.2ZM96.0 137.8L96.0 137.2L96.0 137.8ZM105.0 156.8L97.5 156.8L96.8 156.0L97.0 138.8L97.2 140.5L97.8 141.0L97.2 142.0L97.2 155.5L98.0 156.2L104.0 156.2L104.8 155.5L104.8 137.5L105.2 137.5L105.0 156.8ZM96.5 138.8L96.5 137.8L96.5 138.8ZM65.5 147.2L65.5 146.2L65.5 147.2ZM113.0 148.2L111.0 147.2L110.0 148.2L109.8 147.5L110.5 146.2L112.5 147.2L113.2 148.0L113.0 148.2ZM190.0 147.8L190.0 146.2L190.0 147.8ZM135.0 148.8L135.0 147.2L135.0 148.8ZM189.5 148.2L189.5 147.8L189.5 148.2ZM109.5 149.2L109.5 148.2L109.5 149.2ZM114.0 148.8L113.2 148.5L114.0 148.2L114.0 148.8ZM189.0 148.8L189.0 148.2L189.0 148.8ZM115.5 149.2L114.2 149.0L115.5 148.8L115.5 149.2ZM134.5 150.2L134.5 148.8L134.5 150.2ZM188.5 149.2L188.5 148.8L188.5 149.2ZM109.0 150.2L109.0 149.2L109.0 150.2ZM117.0 149.8L115.8 149.5L117.0 149.2L117.0 149.8ZM188.0 149.8L187.2 149.5L188.0 149.2L188.0 149.8ZM119.0 150.2L117.2 150.0L119.0 149.8L119.0 150.2ZM187.0 150.2L185.2 150.0L187.0 149.8L187.0 150.2ZM48.0 151.8L48.0 150.2L48.0 151.8ZM108.5 151.2L108.5 150.2L108.5 151.2ZM134.0 151.2L134.0 150.2L134.0 151.2ZM108.0 152.2L108.0 151.2L108.0 152.2ZM133.5 151.8L133.5 151.2L133.5 151.8ZM48.5 152.8L48.5 151.8L48.5 152.8ZM132.5 153.2L132.2 152.5L133.0 151.8L133.2 152.5L132.5 153.2ZM107.5 152.8L107.5 152.2L107.5 152.8ZM49.0 153.8L49.0 152.8L49.0 153.8ZM108.0 153.2L108.0 152.8L108.0 153.2ZM109.0 153.8L108.2 153.5L109.0 153.2L109.0 153.8ZM132.0 153.8L132.0 153.2L132.0 153.8ZM49.5 154.2L49.5 153.8L49.5 154.2ZM109.5 154.2L109.5 153.8L109.5 154.2ZM131.5 154.2L131.5 153.8L131.5 154.2ZM50.0 154.8L50.0 154.2L50.0 154.8ZM110.5 154.8L109.8 154.5L110.5 154.2L110.5 154.8ZM131.0 154.8L130.2 154.5L131.0 154.2L131.0 154.8ZM50.5 155.2L50.5 154.8L50.5 155.2ZM65.0 155.2L65.0 154.8L65.0 155.2ZM111.5 155.2L110.8 155.0L111.5 154.8L111.5 155.2ZM130.0 155.2L130.0 154.8L130.0 155.2ZM189.5 155.2L189.5 154.8L189.5 155.2ZM51.0 155.8L51.0 155.2L51.0 155.8ZM64.5 155.8L64.5 155.2L64.5 155.8ZM112.5 155.8L111.8 155.5L112.5 155.2L112.5 155.8ZM129.5 155.8L128.8 155.5L129.5 155.2L129.5 155.8ZM189.0 155.8L189.0 155.2L189.0 155.8ZM52.0 156.2L51.2 156.0L52.0 155.8L52.0 156.2ZM114.0 156.2L112.8 156.0L114.0 155.8L114.0 156.2ZM128.5 156.2L127.8 156.0L128.5 155.8L128.5 156.2ZM188.5 156.2L187.8 156.0L188.5 155.8L188.5 156.2ZM53.5 156.8L52.2 156.5L53.5 156.2L53.5 156.8ZM116.0 156.8L114.2 156.5L116.0 156.2L116.0 156.8ZM127.5 156.8L126.2 156.5L127.5 156.2L127.5 156.8ZM187.5 156.8L186.8 156.5L187.5 156.2L187.5 156.8ZM59.5 157.8L55.5 157.8L55.0 157.2L53.8 157.0L55.5 156.8L56.0 157.2L59.5 157.2L59.5 157.8ZM61.5 157.2L59.8 157.0L61.5 156.8L61.5 157.2ZM123.0 157.8L119.0 157.8L118.5 157.2L116.2 157.0L119.0 156.8L119.5 157.2L123.0 157.2L123.0 157.8ZM126.0 157.2L123.2 157.0L126.0 156.8L126.0 157.2ZM186.5 157.2L184.8 157.0L186.5 156.8L186.5 157.2ZM184.5 157.8L180.2 157.5L184.5 157.2L184.5 157.8ZM170.5 185.2L166.0 185.2L162.2 183.5L162.2 182.0L162.8 181.5L162.8 180.5L163.5 179.8L166.0 181.2L167.5 181.2L168.0 181.8L169.0 181.8L170.8 180.5L170.8 180.0L169.5 178.8L168.5 178.8L168.0 178.2L167.0 178.2L165.0 177.2L162.8 175.0L162.8 171.5L163.2 170.5L165.0 168.8L166.0 168.2L168.0 168.2L168.5 167.8L169.5 168.2L172.0 168.2L174.2 169.5L174.2 171.0L173.8 171.5L173.5 173.2L171.5 172.2L170.5 172.2L170.0 171.8L167.5 171.8L166.8 172.5L166.8 173.0L168.0 174.2L169.0 174.2L169.5 174.8L170.5 174.8L172.5 175.8L174.8 178.0L174.8 181.5L174.2 182.5L172.0 184.8L171.0 184.8L170.5 185.2ZM72.0 184.8L60.8 184.5L61.0 168.2L72.2 168.5L72.0 172.2L71.0 171.8L65.5 171.8L64.8 172.5L64.8 174.0L65.5 174.8L70.8 175.0L70.5 178.2L66.0 178.2L64.8 179.5L64.8 180.5L65.5 181.2L72.0 181.2L72.0 184.8ZM89.5 184.8L85.0 184.8L84.2 184.0L84.2 183.0L83.2 181.5L83.2 180.5L82.2 179.0L82.2 178.0L81.2 176.5L81.2 175.5L80.2 174.0L80.2 173.0L79.2 171.5L79.2 170.5L78.2 169.0L78.5 168.2L82.8 168.5L83.8 170.5L84.8 174.5L85.8 176.0L86.2 178.5L87.0 179.2L88.2 177.5L88.2 176.5L89.8 173.5L90.2 171.0L91.2 169.5L91.2 168.5L95.8 168.5L95.2 170.5L94.2 172.0L94.2 173.0L93.2 174.5L93.2 175.5L92.2 177.0L92.2 178.0L91.2 179.5L91.2 180.5L90.2 182.0L90.2 183.0L89.8 183.5L89.5 184.8ZM113.5 184.8L101.8 184.5L102.0 168.2L113.2 168.5L113.0 172.2L112.0 171.8L106.5 171.8L105.8 172.5L105.8 174.0L106.5 174.8L111.5 174.8L111.8 176.0L112.2 176.5L111.8 177.0L112.2 177.5L111.5 178.2L106.5 178.2L105.8 179.0L105.8 180.5L106.5 181.2L113.0 181.2L113.2 183.5L113.8 184.0L113.5 184.8ZM135.5 184.8L132.0 184.8L126.0 176.8L125.2 177.5L125.2 184.5L121.2 184.5L121.5 168.2L124.5 168.2L126.2 170.0L128.2 173.5L129.8 175.0L129.8 175.5L131.5 177.8L132.2 177.0L132.2 168.5L135.8 168.5L135.5 184.8ZM151.0 184.8L147.2 184.5L147.2 173.0L146.5 172.2L143.2 172.0L143.5 168.2L156.2 168.5L156.2 171.5L155.5 172.2L152.5 172.2L152.0 171.8L151.2 172.5L151.0 184.8Z"/>
</svg>
